<svg width="64" height="64" viewBox="0 0 64 64" fill="none" xmlns="http://www.w3.org/2000/svg">
<path d="M32 64C49.6731 64 64 49.6731 64 32C64 14.3269 49.6731 0 32 0C14.3269 0 0 14.3269 0 32C0 49.6731 14.3269 64 32 64Z" fill="url(#paint0_linear_2759_30271)"/>
<path d="M44 37.8933V42.608C44.0001 42.9456 43.8723 43.2707 43.6421 43.5176C43.412 43.7645 43.0968 43.9151 42.76 43.9387C42.1773 43.9787 41.7013 44 41.3333 44C29.5507 44 20 34.4493 20 22.6667C20 22.2987 20.02 21.8227 20.0613 21.24C20.0849 20.9032 20.2355 20.588 20.4824 20.3579C20.7293 20.1277 21.0544 19.9999 21.392 20H26.1067C26.272 19.9999 26.4316 20.0612 26.5543 20.172C26.6771 20.2829 26.7541 20.4355 26.7707 20.6C26.8013 20.9067 26.8293 21.1507 26.856 21.336C27.1209 23.1852 27.664 24.9837 28.4667 26.6707C28.5933 26.9373 28.5107 27.256 28.2707 27.4267L25.3933 29.4827C27.1527 33.582 30.4193 36.8487 34.5187 38.608L36.572 35.736C36.6559 35.6187 36.7784 35.5345 36.918 35.4983C37.0576 35.4619 37.2056 35.4757 37.336 35.5373C39.0227 36.3385 40.8208 36.8801 42.6693 37.144C42.8547 37.1707 43.0987 37.2 43.4027 37.2293C43.5669 37.2461 43.7192 37.3235 43.8299 37.4461C43.9404 37.5688 44.0016 37.7281 44.0013 37.8933H44Z" fill="white"/>
<defs>
<linearGradient id="paint0_linear_2759_30271" x1="64" y1="64" x2="18.4704" y2="-11.1851" gradientUnits="userSpaceOnUse">
<stop stop-color="#4FD6B8"/>
<stop offset="0.895833" stop-color="#12B5A0"/>
</linearGradient>
</defs>
</svg>
