<svg xmlns="http://www.w3.org/2000/svg" version="1.1" xmlns:xlink="http://www.w3.org/1999/xlink" xmlns:svgjs="http://svgjs.dev/svgjs" width="2000" height="368" viewBox="0 0 2000 368"><g transform="matrix(1,0,0,1,-1.2112696095522324,1.2433618870796295)"><svg viewBox="0 0 396 73" data-background-color="#ffffff" preserveAspectRatio="xMidYMid meet" height="368" width="2000" xmlns="http://www.w3.org/2000/svg" xmlns:xlink="http://www.w3.org/1999/xlink"><defs></defs><g id="tight-bounds" transform="matrix(1,0,0,1,0.24008861730862918,-0.2466451569478636)"><svg viewBox="0 0 395.52 73.49318367919798" height="73.49318367919798" width="395.52"><g><svg viewBox="0 0 395.52 73.49318367919798" height="73.49318367919798" width="395.52"><g><svg viewBox="0 0 395.52 73.49318367919798" height="73.49318367919798" width="395.52"><g><svg viewBox="0 0 395.52 73.49318367919798" height="73.49318367919798" width="395.52"><g><svg viewBox="0 0 395.52 73.49318367919798" height="73.49318367919798" width="395.52"><path d="M394.594 15.763C392.735 8.134 387.435 6.014 387.435 6.014 371.165-1.844 350.86-0.15 332.619 0.979 300.414 1.024 268.339 2.703 236.208 3.603 168.767 3.74 100.749 1.482 33.643 7.051 27.339 8.76-6.54 7.387 1.121 16.739 3.129 20.63 10.456 24.948 10.232 28.518 11.236 29.143 12.631 27.709 13.226 28.609 15.309 31.035 18.711 29.891 21.501 31.325 17.614 35.155 20.403 38.343 23.062 41.685 18.377 42.554 12.371 42.142 9.675 45.026 9.396 47.116 7.89 46.72 6.235 46.628 5.026 46.567 2.59 46.796 2.999 47.452 4.394 49.695-1.594 50.992 2.162 53.189-0.422 55.569 3.948 57.628 3.353 60.207 3.278 60.726 3.687 61.168 4.338 61.29 7.22 61.946 3.018 63.228 3.464 64.616 33.029 74.106 65.104 67.546 95.394 71.909 103.259 68.858 97.346 72.992 100.489 72.352 102.943 71.604 104.728 74.701 107.499 72.947 107.927 72.443 107.276 71.253 108.8 71.482 109.6 71.604 110.307 71.573 110.418 70.872 110.586 69.819 109.117 70.475 108.726 69.926 112.947 67.149 111.906 73.755 115.866 73.481 115.68 72.672 114.528 71.512 116.889 71.665 119.232 70.505 119.306 69.544 121.389 72.153 121.463 72.718 121.835 73.114 122.43 73.389 128.938 70.551 135.409 74.396 142.233 73.114 146.417 71.711 150.433 73.877 154.672 73.343 156.16 72.916 157.666 72.153 159.098 73.435 176.632 73.709 195.319 72.565 211.943 73.481 256.364 71.772 303.835 74.182 350.674 71.924 361.719 71.055 373.192 69.819 383.958 68.827 383.958 68.827 392.679 66.111 392.679 53.906S394.538 43.226 394.817 33.507C395.096 23.788 396.398 23.391 394.538 15.763Z" opacity="1" fill="#282876" data-fill-palette-color="tertiary"></path><g transform="matrix(1,0,0,1,55.76832,26.230666666666668)"><svg width="283.98335999999995" viewBox="2.5 -37 531.9600219726562 39.400001525878906" height="21.031850345864655" data-palette-color="#ffffff"><path d="M7.8-31.65Q7.85-31.6 6.55-32.75L6.55-32.75Q5.65-33.55 5.2-33.9L5.2-33.9Q5.4-35.25 6.2-35.8 7-36.35 8.3-36.65L8.3-36.65Q9.65-37 11.2-37L11.2-37Q12.7-37 14.25-36.7L14.25-36.7Q18.7-35.9 22.1-34.85 25.5-33.8 28.45-31.9L28.45-31.9Q30.5-30.65 31.9-28.95L31.9-28.95Q33.95-26.3 33.95-23.55L33.95-23.55Q33.95-21.2 32.4-18.7L32.4-18.7Q26.5-9.35 20.25-3.95L20.25-3.95Q16.45-0.6 11.85 1.55L11.85 1.55Q10.15 2.4 8.3 2.4L8.3 2.4Q6.1 2.4 4.05 1.15L4.05 1.15Q3.3 0.65 2.9 0.13 2.5-0.4 2.5-1.1L2.5-1.1 2.55-1.55 2.9-4.15Q3.5-8.75 4-11L4-11 4.25-12.1Q5.75-18.6 6.5-22.58 7.25-26.55 7.6-30.75L7.6-30.75 7.8-31.65ZM14.4-32.25Q13.8-32.3 12.8-32.15L12.8-32.15 11.7-32Q12.9-31 13.45-30.25 14-29.5 14-28.65L14-28.65Q14-28.45 13.9-27.95L13.9-27.95Q13.25-25.05 12.15-20.8L12.15-20.8 10.35-13.6Q9.15-8.7 8.25-4.5L8.25-4.5Q8.1-3.95 8.08-3.28 8.05-2.6 8.05-2.3L8.05-2.3Q8.5-2.1 8.55-2.1L8.55-2.1 9.2-2.35Q16.7-6 22-12.55L22-12.55Q24.15-15.3 25.63-17.75 27.1-20.2 27.85-22.9L27.85-22.9Q28.05-23.55 28.05-24.45L28.05-24.45Q28.05-26 27.28-27.25 26.5-28.5 25.15-29.15L25.15-29.15Q20.15-31.4 14.4-32.25L14.4-32.25ZM45.5-1.1Q44.45-0.8 43.55-0.8L43.55-0.8Q41.15-0.8 38.95-2.9L38.95-2.9Q39.25-4 39.95-4.53 40.65-5.05 41.35-5.35 42.05-5.65 42.3-5.75L42.3-5.75Q45-6.9 47.95-7.75L47.95-7.75Q49.2-8.15 49.5-9.35L49.5-9.35Q50.4-12.4 50.9-15.38 51.4-18.35 52.1-23.4L52.1-23.4 52.3-24.95Q52.35-25.1 52.35-25.4L52.35-25.4Q52.35-26.45 51.3-26.85L51.3-26.85Q50.95-27 50.5-27.38 50.05-27.75 49.8-27.95L49.8-27.95 48.6-27.35Q47.15-26.7 45.3-25.75L45.3-25.75Q44.65-25.4 43.95-25.4L43.95-25.4Q43.2-25.4 42.37-25.78 41.55-26.15 41.4-26.2L41.4-26.2Q40.95-26.4 40.67-26.8 40.4-27.2 40.4-27.65L40.4-27.65Q40.4-28.25 40.8-28.8L40.8-28.8Q41.35-29.6 42.5-30.45L42.5-30.45Q47-33.8 52-33.8L52-33.8Q54.3-33.8 56.55-33.15L56.55-33.15Q58.65-32.5 60.22-32.08 61.8-31.65 62.85-31.35L62.85-31.35 66-30.45Q66.1-30.45 66.42-30.4 66.75-30.35 66.9-30.2L66.9-30.2Q67.2-29.95 67.52-29.53 67.85-29.1 68.05-28.85L68.05-28.85Q67.8-28.65 67.37-28.25 66.95-27.85 66.6-27.85L66.6-27.85Q66.2-27.8 65.35-27.8L65.35-27.8Q64.7-27.8 63.4-27.9L63.4-27.9 62.3-27.95 58.75-28.35 58.5-26.55Q57.85-21.85 57.35-19.1L57.35-19.1Q56.95-16.7 56.05-12.65L56.05-12.65 55.45-9.7Q58.85-10.15 60.05-10.3L60.05-10.3Q62.75-10.6 64.1-10.6L64.1-10.6Q65.75-10.6 66.85-10.15 67.95-9.7 68.4-8.3L68.4-8.3Q67.9-7.65 67.27-7.35 66.65-7.05 66.02-6.9 65.4-6.75 65.25-6.7L65.25-6.7 64.3-6.4Q61.3-5.5 60.2-5.35L60.2-5.35Q57.85-5 55.62-4.35 53.4-3.7 50.1-2.6L50.1-2.6Q47.95-1.8 45.5-1.1L45.5-1.1ZM96.2-33.5Q98.95-33.15 100.8-30.65L100.8-30.65Q100.15-29.7 99.42-29.28 98.7-28.85 97.65-28.8L97.65-28.8Q93.3-28.75 90.22-28.45 87.15-28.15 83.72-26.45 80.3-24.75 79.85-21L79.85-21Q78.5-18.25 78.5-14.55L78.5-14.55Q78.5-12.65 78.95-9.7L78.95-9.7Q79.55-5.9 82.7-5.9L82.7-5.9Q83.5-5.9 83.95-6L83.95-6Q86.6-6.45 89.25-8L89.25-8Q90.75-8.95 92.25-10.18 93.75-11.4 94.05-11.6L94.05-11.6 95.35-12.65Q95.9-13.15 96.17-13.58 96.45-14 96.45-14.65L96.45-14.65Q96.45-14.9 96.35-15.4L96.35-15.4Q94.65-15.25 91.35-15.05L91.35-15.05 89.9-14.95Q88.95-14.85 87.05-14.75L87.05-14.75Q85-14.75 83.82-15.73 82.65-16.7 82-18.95L82-18.95Q82.15-19.05 82.35-19.25 82.55-19.45 82.7-19.45L82.7-19.45 84.45-19.65Q90.2-20.35 93.2-20.5L93.2-20.5Q95.65-20.65 98.9-20.1L98.9-20.1Q103.4-19.35 103.4-15.95L103.4-15.95Q103.4-14.7 102.9-13.35L102.9-13.35Q102.65-12.6 102.1-11.6L102.1-11.6Q100.95-9.15 98.95-7.35 96.95-5.55 94.1-3.9L94.1-3.9Q91.85-2.55 90.15-1.8 88.45-1.05 86.55-0.9L86.55-0.9Q86.1-0.85 85.15-0.85L85.15-0.85Q80.8-0.85 77.25-3.8L77.25-3.8Q75.5-5.3 74.57-7.03 73.65-8.75 73.5-10.95L73.5-10.95Q73.4-12.45 73.4-13.05L73.4-13.05Q73.4-15.9 74.1-18.38 74.8-20.85 76.75-26.1L76.75-26.1Q78.7-30.35 83.05-32.08 87.4-33.8 92.25-33.8L92.25-33.8Q94.3-33.8 96.2-33.5L96.2-33.5ZM114.94-1.1Q113.89-0.8 112.99-0.8L112.99-0.8Q110.59-0.8 108.39-2.9L108.39-2.9Q108.69-4 109.39-4.53 110.09-5.05 110.79-5.35 111.49-5.65 111.74-5.75L111.74-5.75Q114.44-6.9 117.39-7.75L117.39-7.75Q118.64-8.15 118.94-9.35L118.94-9.35Q119.84-12.4 120.34-15.38 120.84-18.35 121.54-23.4L121.54-23.4 121.74-24.95Q121.79-25.1 121.79-25.4L121.79-25.4Q121.79-26.45 120.74-26.85L120.74-26.85Q120.39-27 119.94-27.38 119.49-27.75 119.24-27.95L119.24-27.95 118.04-27.35Q116.59-26.7 114.74-25.75L114.74-25.75Q114.09-25.4 113.39-25.4L113.39-25.4Q112.64-25.4 111.82-25.78 110.99-26.15 110.84-26.2L110.84-26.2Q110.39-26.4 110.12-26.8 109.84-27.2 109.84-27.65L109.84-27.65Q109.84-28.25 110.24-28.8L110.24-28.8Q110.79-29.6 111.94-30.45L111.94-30.45Q116.44-33.8 121.44-33.8L121.44-33.8Q123.74-33.8 125.99-33.15L125.99-33.15Q128.09-32.5 129.67-32.08 131.24-31.65 132.29-31.35L132.29-31.35 135.44-30.45Q135.54-30.45 135.87-30.4 136.19-30.35 136.34-30.2L136.34-30.2Q136.64-29.95 136.97-29.53 137.29-29.1 137.49-28.85L137.49-28.85Q137.24-28.65 136.82-28.25 136.39-27.85 136.04-27.85L136.04-27.85Q135.64-27.8 134.79-27.8L134.79-27.8Q134.14-27.8 132.84-27.9L132.84-27.9 131.74-27.95 128.19-28.35 127.94-26.55Q127.29-21.85 126.79-19.1L126.79-19.1Q126.39-16.7 125.49-12.65L125.49-12.65 124.89-9.7Q128.29-10.15 129.49-10.3L129.49-10.3Q132.19-10.6 133.54-10.6L133.54-10.6Q135.19-10.6 136.29-10.15 137.39-9.7 137.84-8.3L137.84-8.3Q137.34-7.65 136.72-7.35 136.09-7.05 135.47-6.9 134.84-6.75 134.69-6.7L134.69-6.7 133.74-6.4Q130.74-5.5 129.64-5.35L129.64-5.35Q127.29-5 125.07-4.35 122.84-3.7 119.54-2.6L119.54-2.6Q117.39-1.8 114.94-1.1L114.94-1.1ZM155.59-17.25Q155.74-19.3 155.89-21.03 156.04-22.75 156.19-24.15L156.19-24.15 156.59-28.15Q152.69-27.55 148.29-25.85L148.29-25.85Q147.24-25.45 146.34-25.45L146.34-25.45Q144.99-25.45 143.87-26.2 142.74-26.95 142.09-28.4L142.09-28.4Q142.39-29.5 143.22-30.05 144.04-30.6 145.49-31.15L145.49-31.15Q152.44-33.7 161.39-33.65L161.39-33.65Q165.64-33.65 170.27-33.3 174.89-32.95 175.69-32.9L175.69-32.9 179.19-32.65Q179.39-32.65 179.87-32.65 180.34-32.65 180.64-32.43 180.94-32.2 180.94-31.7L180.94-31.7Q180.94-30.45 179.14-30.25L179.14-30.25Q174.64-29.75 172.74-29.55L172.74-29.55Q170.79-29.45 169.79-29.35L169.79-29.35Q165.89-29.1 163.94-28.95L163.94-28.95Q162.74-28.85 162.29-28.68 161.84-28.5 161.72-28.08 161.59-27.65 161.49-26.3L161.49-26.3Q161.24-23.15 160.44-15.45L160.44-15.45Q159.64-8.5 159.44-5.85L159.44-5.85Q159.39-4.4 158.79-2.35L158.79-2.35Q158.39-1.05 158.14-0.63 157.89-0.2 157.42-0.1 156.94 0 155.64-0.05L155.64-0.05Q154.69-0.05 154.17-0.48 153.64-0.9 153.64-1.65L153.64-1.65Q153.64-1.8 153.74-2.3L153.74-2.3Q154.84-6.65 155.59-17.25L155.59-17.25ZM207.39-26.8Q207.69-24.65 207.99-20.55L207.99-20.55 208.09-17.95Q208.09-10.7 209.99-5L209.99-5Q210.24-4.2 210.24-2.95L210.24-2.95Q210.24-2.25 210.14-1.05L210.14-1.05Q210.09-0.25 209.54 0.23 208.99 0.7 208.14 0.7L208.14 0.7Q208.04 0.7 207.59 0.6L207.59 0.6Q206.34 0.3 205.69-0.53 205.04-1.35 205.04-2.55L205.04-2.55Q205.04-2.95 205.09-3.15L205.09-3.15Q205.09-3.45 205.09-4L205.09-4Q205.09-4.9 204.99-5.65L204.99-5.65Q204.59-7.6 203.74-10.85L203.74-10.85Q203.44-12.2 202.49-12.2L202.49-12.2Q202.14-12.2 201.69-12.05L201.69-12.05Q200.14-11.6 198.96-11.2 197.79-10.8 196.89-10.55L196.89-10.55 194.49-9.85Q192.44-9.25 190.69-8.9L190.69-8.9Q188.84-8.5 187.99-6.85L187.99-6.85Q187.19-5.35 185.69-2.8L185.69-2.8Q184.74-1.1 183.19-1.1L183.19-1.1Q182.44-1.1 181.71-1.48 180.99-1.85 180.49-2.45L180.49-2.45Q179.74-3.3 179.74-4.1L179.74-4.1Q179.74-4.65 180.04-5.25L180.04-5.25 183.49-12.25Q189.19-23.85 190.29-26.15L190.29-26.15Q193.44-32.25 198.84-34.55L198.84-34.55Q199.99-35.1 201.19-35.1L201.19-35.1Q202.69-35.1 203.96-34.33 205.24-33.55 205.94-32.15L205.94-32.15Q206.94-30.1 207.39-26.8L207.39-26.8ZM191.24-14.15Q198.09-15.35 202.89-16.1L202.89-16.1Q202.79-20.9 202.61-23.68 202.44-26.45 201.89-29.25L201.89-29.25Q199.24-28.95 197.89-26.65L197.89-26.65Q195.54-22.95 193.39-19L193.39-19Q193.04-18.35 192.09-16.1L192.09-16.1 191.24-14.15ZM225.89-2.6Q227.24-2.85 231.49-3.75L231.49-3.75 235.34-4.55Q235.99-3.9 236.44-3.4 236.89-2.9 236.89-2.55L236.89-2.55Q236.89-2.15 236.49-1.75 236.09-1.35 234.89-0.45L234.89-0.45Q234.74-0.35 234.56-0.1 234.39 0.15 234.19 0.2L234.19 0.2 232.84 0.55Q231.14 1.05 229.81 1.33 228.49 1.6 227.14 1.6L227.14 1.6Q222.34 1.6 219.29-1.25L219.29-1.25Q218.14-2.3 217.51-3.38 216.89-4.45 216.89-5.7L216.89-5.7Q216.89-6.25 216.94-6.5L216.94-6.5Q217.74-11.45 218.74-14.9L218.74-14.9Q219.79-18.7 222.54-27.8L222.54-27.8Q223.14-29.95 224.44-34.25L224.44-34.25Q224.79-35.4 225.41-35.85 226.04-36.3 227.24-36.2L227.24-36.2Q227.49-36.2 227.71-36.15 227.94-36.1 228.19-36.1L228.19-36.1Q231.29-35.85 231.29-33.1L231.29-33.1Q231.29-32.4 231.09-31.65L231.09-31.65Q230.69-30.05 229.59-27.35L229.59-27.35Q225.54-17.05 223.34-7.5L223.34-7.5Q223.04-6.3 223.04-5L223.04-5Q223.04-2.55 225.19-2.55L225.19-2.55Q225.64-2.55 225.89-2.6L225.89-2.6ZM269.68-13.65Q268.73-13.3 268.13-13.3L268.13-13.3Q267.03-13.3 266.06-14.05 265.08-14.8 264.43-16.1L264.43-16.1 265.83-17Q268.23-18.6 269.38-19.45L269.38-19.45Q273.23-22.45 276.08-25.05L276.08-25.05Q276.63-25.5 277.38-26.9L277.38-26.9 278.08-28.1 277.18-28.55Q277.03-28.6 276.51-28.83 275.98-29.05 275.63-29.1L275.63-29.1Q271.28-29.55 265.88-29.9L265.88-29.9Q264.18-30.05 263.68-28.05L263.68-28.05 259.48-8.6Q259.13-7.1 258.93-5.98 258.73-4.85 258.58-4.1L258.58-4.1 258.13-1.85Q257.93-1.05 257.48-0.58 257.03-0.1 256.18-0.05L256.18-0.05 255.53 0Q254.58 0 254.21-0.45 253.83-0.9 253.88-2.05L253.88-2.05 253.98-4.05Q254.28-9.95 254.73-12.9L254.73-12.9Q255.03-15.05 255.61-17.65 256.18-20.25 256.38-21.05L256.38-21.05Q257.08-23.95 257.38-25.45L257.38-25.45 254.78-25.9Q254.18-27.2 254.18-28.15L254.18-28.15Q254.18-29.75 255.68-31.4L255.68-31.4Q256.73-32.6 258.18-33.35 259.63-34.1 261.18-34.35L261.18-34.35Q263.43-34.6 265.18-34.6L265.18-34.6Q272.03-34.6 279.08-31.7L279.08-31.7Q279.93-31.35 280.78-30.63 281.63-29.9 281.88-29.7L281.88-29.7Q283.83-28.05 283.83-26.25L283.83-26.25Q283.83-25.05 283.08-23.6L283.08-23.6Q282.68-22.75 281.73-21.65L281.73-21.65Q277.08-16.55 269.68-13.65L269.68-13.65ZM312.63-4.8Q312.78-4.3 312.78-3.85L312.78-3.85Q312.78-3.05 312.3-2.58 311.83-2.1 311.03-2.1L311.03-2.1Q310.73-2.1 310.53-2.15L310.53-2.15Q308.28-2.65 306.98-3.25L306.98-3.25Q305.98-3.7 303.28-5.5L303.28-5.5Q301.23-6.85 299.88-7.6L299.88-7.6Q298.13-8.55 296.13-8.9L296.13-8.9Q295.23-9.05 291.88-9.4L291.88-9.4Q290.38-9.5 289.68-9.6L289.68-9.6 288.78-2.2 288.83-1.4Q288.83 0.4 288.4 1 287.98 1.6 286.68 1.6L286.68 1.6Q285.33 1.6 284.33 0.75 283.33-0.1 283.33-1.35L283.33-1.35Q283.33-5.15 283.73-8.1L283.73-8.1Q285.13-17.15 290.18-26.9L290.18-26.9Q293.03-32.35 298.93-35.3L298.93-35.3Q300.83-36.25 302.78-36.25L302.78-36.25Q304.78-36.25 306.5-35.23 308.23-34.2 309.38-32.25L309.38-32.25Q310.43-30.5 310.43-28.85L310.43-28.85Q310.43-26.55 308.63-24.2L308.63-24.2Q306.48-21.4 302.53-16.25L302.53-16.25 299.28-12.05Q299.33-12.05 299.4-11.93 299.48-11.8 299.58-11.7L299.58-11.7 300.68-11.1Q304.83-8.85 306.78-7.55L306.78-7.55Q308.68-6.4 310.83-6.4L310.83-6.4Q311.48-6.4 311.83-6.45L311.83-6.45Q311.98-6.2 312.23-5.7 312.48-5.2 312.63-4.8L312.63-4.8ZM294.13-14.7Q296.18-17 298.25-19.5 300.33-22 301.93-24.2L301.93-24.2Q302.58-25.1 303.03-26.13 303.48-27.15 303.85-28.2 304.23-29.25 304.38-29.7L304.38-29.7Q304.43-29.85 304.43-30.2L304.43-30.2Q304.43-30.6 304.33-31.2 304.23-31.8 304.18-32.05L304.18-32.05Q300.53-30.95 297.53-27.55 294.53-24.15 292.8-20 291.08-15.85 291.03-12.85L291.03-12.85Q292.03-12.75 292.6-13.2 293.18-13.65 294.13-14.7L294.13-14.7ZM331.28-18.6Q331.28-18.4 331.33-18.18 331.38-17.95 331.43-17.75L331.43-17.75Q331.83-17.7 332.63-17.7L332.63-17.7Q336.13-17.7 339.83-19.2L339.83-19.2Q340.88-19.6 341.58-19.6L341.58-19.6Q342.98-19.6 343.88-18.3L343.88-18.3Q344.33-17.6 344.33-17.1L344.33-17.1Q344.33-16.5 343.68-15.85L343.68-15.85Q341.68-14 339.43-13.75L339.43-13.75Q337.43-13.5 333.43-12.9L333.43-12.9 329.93-12.4Q329.13-10.65 329.13-9L329.13-9Q329.13-6.6 330.8-5.03 332.48-3.45 335.38-3.35L335.38-3.35Q338.33-3.3 342.93-3.75L342.93-3.75 343.68-3.8Q344.93-3.8 345.75-3.23 346.58-2.65 347.33-1.2L347.33-1.2Q346.78 0 345.78 0.43 344.78 0.85 343.18 1.05L343.18 1.05Q341.53 1.25 339.43 1.25L339.43 1.25Q334.88 1.25 331.23-0.2L331.23-0.2Q324.78-2.7 322.98-8.85L322.98-8.85Q322.73-9.7 322.73-10.68 322.73-11.65 322.73-11.85L322.73-11.85Q322.73-13.55 321.08-14.35L321.08-14.35Q319.73-15.1 319-15.8 318.28-16.5 318.08-17.9L318.08-17.9 323.73-18.25 326.28-25.6Q326.38-25.95 326.5-26.48 326.63-27 326.78-27.3L326.78-27.3Q327.23-28.3 327.23-28.95L327.23-28.95Q327.23-29.95 326.28-30.7L326.28-30.7Q325.93-30.95 325.7-31.63 325.48-32.3 325.28-32.7L325.28-32.7 326.38-33.05Q327.18-33.25 327.53-33.4L327.53-33.4Q327.73-33.5 328.38-33.77 329.03-34.05 329.13-34.4L329.13-34.4Q329.48-35.25 330-35.55 330.53-35.85 331.28-35.85L331.28-35.85Q331.78-35.85 332.78-35.75L332.78-35.75Q333.08-35.75 333.4-35.63 333.73-35.5 333.93-35.3L333.93-35.3Q335.08-34.1 336.48-33.7 337.88-33.3 339.78-33.3L339.78-33.3 341.93-33.3 346.13-33.3Q350.38-33.3 352.48-33.2L352.48-33.2Q353.58-33.15 355.28-32.25L355.28-32.25Q355.58-32.1 355.75-31.68 355.93-31.25 355.93-30.85L355.93-30.85Q355.93-30.65 355.58-30.38 355.23-30.1 354.93-30L354.93-30Q351.53-29.1 349.78-28.95L349.78-28.95Q347.08-28.7 341.68-28.3L341.68-28.3Q340.43-28.25 337.68-28.05L337.68-28.05Q337.48-28.05 336.98-28.18 336.48-28.3 336.23-28.3L336.23-28.3Q334.38-28.3 333.88-26.75L333.88-26.75Q332.53-22.75 331.33-18.8L331.33-18.8 331.28-18.6ZM377.42-35.6Q378.67-35.1 378.67-34.2L378.67-34.2Q378.67-33.3 377.42-31.9L377.42-31.9Q376.87-31.95 375.82-31.95L375.82-31.95Q373.52-31.95 371.42-31.33 369.32-30.7 367.07-29.4L367.07-29.4Q366.02-28.75 365.27-27.75L365.27-27.75Q364.72-27.15 364.72-26.35L364.72-26.35Q364.72-25 366.22-23.75L366.22-23.75Q367.67-22.25 370.97-18.3L370.97-18.3 372.12-17.1Q374.57-14.45 376-12.6 377.42-10.75 378.42-8.35L378.42-8.35Q378.82-7.3 378.82-6.45L378.82-6.45Q378.82-4.3 377.17-2.5L377.17-2.5Q375.27-0.4 372.77 0.58 370.27 1.55 367.12 1.8L367.12 1.8Q366.72 1.85 366.17 1.9 365.62 1.95 364.92 1.95L364.92 1.95Q364.47 1.95 363.57 1.85L363.57 1.85Q362.47 1.9 361.27 1.48 360.07 1.05 359.07 0.25L359.07 0.25Q357.17-1.35 357.17-3.3L357.17-3.3Q357.17-4.95 358.57-6.65L358.57-6.65Q359.27-6.55 359.4-6.23 359.52-5.9 359.45-5.5 359.37-5.1 359.37-4.85L359.37-4.85Q359.37-4.7 359.47-4.4L359.47-4.4Q361.42-3.5 364.12-3.5L364.12-3.5Q367.12-3.5 369.8-4.53 372.47-5.55 373.07-7.05L373.07-7.05Q373.42-8.05 371.37-10.58 369.32-13.1 366.77-15.5L366.77-15.5Q364.37-17.65 362.42-19.75L362.42-19.75Q361.32-20.95 360.7-22.53 360.07-24.1 360.07-25.8L360.07-25.8Q360.07-28.1 361.25-30.15 362.42-32.2 364.77-33.5L364.77-33.5Q369.27-36.05 373.97-36.05L373.97-36.05Q374.62-36.05 375.82-35.95L375.82-35.95Q376.92-35.85 377.42-35.6L377.42-35.6ZM397.02-18.6Q397.02-18.4 397.07-18.18 397.12-17.95 397.17-17.75L397.17-17.75Q397.57-17.7 398.37-17.7L398.37-17.7Q401.87-17.7 405.57-19.2L405.57-19.2Q406.62-19.6 407.32-19.6L407.32-19.6Q408.72-19.6 409.62-18.3L409.62-18.3Q410.07-17.6 410.07-17.1L410.07-17.1Q410.07-16.5 409.42-15.85L409.42-15.85Q407.42-14 405.17-13.75L405.17-13.75Q403.17-13.5 399.17-12.9L399.17-12.9 395.67-12.4Q394.87-10.65 394.87-9L394.87-9Q394.87-6.6 396.55-5.03 398.22-3.45 401.12-3.35L401.12-3.35Q404.07-3.3 408.67-3.75L408.67-3.75 409.42-3.8Q410.67-3.8 411.5-3.23 412.32-2.65 413.07-1.2L413.07-1.2Q412.52 0 411.52 0.43 410.52 0.85 408.92 1.05L408.92 1.05Q407.27 1.25 405.17 1.25L405.17 1.25Q400.62 1.25 396.97-0.2L396.97-0.2Q390.52-2.7 388.72-8.85L388.72-8.85Q388.47-9.7 388.47-10.68 388.47-11.65 388.47-11.85L388.47-11.85Q388.47-13.55 386.82-14.35L386.82-14.35Q385.47-15.1 384.75-15.8 384.02-16.5 383.82-17.9L383.82-17.9 389.47-18.25 392.02-25.6Q392.12-25.95 392.25-26.48 392.37-27 392.52-27.3L392.52-27.3Q392.97-28.3 392.97-28.95L392.97-28.95Q392.97-29.95 392.02-30.7L392.02-30.7Q391.67-30.95 391.45-31.63 391.22-32.3 391.02-32.7L391.02-32.7 392.12-33.05Q392.92-33.25 393.27-33.4L393.27-33.4Q393.47-33.5 394.12-33.77 394.77-34.05 394.87-34.4L394.87-34.4Q395.22-35.25 395.75-35.55 396.27-35.85 397.02-35.85L397.02-35.85Q397.52-35.85 398.52-35.75L398.52-35.75Q398.82-35.75 399.15-35.63 399.47-35.5 399.67-35.3L399.67-35.3Q400.82-34.1 402.22-33.7 403.62-33.3 405.52-33.3L405.52-33.3 407.67-33.3 411.87-33.3Q416.12-33.3 418.22-33.2L418.22-33.2Q419.32-33.15 421.02-32.25L421.02-32.25Q421.32-32.1 421.5-31.68 421.67-31.25 421.67-30.85L421.67-30.85Q421.67-30.65 421.32-30.38 420.97-30.1 420.67-30L420.67-30Q417.27-29.1 415.52-28.95L415.52-28.95Q412.82-28.7 407.42-28.3L407.42-28.3Q406.17-28.25 403.42-28.05L403.42-28.05Q403.22-28.05 402.72-28.18 402.22-28.3 401.97-28.3L401.97-28.3Q400.12-28.3 399.62-26.75L399.62-26.75Q398.27-22.75 397.07-18.8L397.07-18.8 397.02-18.6ZM427.92-24.65Q427.72-26.45 428.44-27.93 429.17-29.4 430.52-30.8L430.52-30.8 433.57-31.05Q434.27-31.15 434.42-31.15L434.42-31.15Q435.17-31.15 436.32-29.3L436.32-29.3Q436.42-29 436.52-28.58 436.62-28.15 436.82-27.9L436.82-27.9 442.62-19.85Q443.92-18.2 445.17-16.4L445.17-16.4 446.02-19.15Q447.62-24.4 448.94-27.68 450.27-30.95 452.42-33.9L452.42-33.9 454.82-33.55Q455.77-32.8 455.47-31.55L455.47-31.55Q455.02-29.75 454.52-28.85L454.52-28.85Q453.32-25.8 452.52-22.68 451.72-19.55 450.72-14.8L450.72-14.8Q450.57-14.15 450.32-12.85L450.32-12.85Q449.92-10.85 448.77-9.88 447.62-8.9 445.62-8.8L445.62-8.8Q443.62-8.7 442.17-10.45L442.17-10.45Q440.67-12.25 438.42-15.3L438.42-15.3 437.42-16.65Q436.07-18.45 433.32-21.95L433.32-21.95 432.87-19.8Q432.12-16.2 431.97-14.15L431.97-14.15 431.67-8.1Q431.62-7.1 431.57-5.58 431.52-4.05 431.37-2L431.37-2Q431.32-0.5 430.34 0.6 429.37 1.7 427.92 2.1L427.92 2.1Q427.17 2.3 426.09 1.73 425.02 1.15 424.82 0.4L424.82 0.4Q424.47-0.9 424.47-1.9L424.47-1.9Q424.47-2.8 424.72-3.5L424.72-3.5Q425.17-4.7 425.32-7.3L425.32-7.3Q425.42-8.9 425.57-9.7L425.57-9.7Q426.22-14.3 427.57-22.4L427.57-22.4Q427.62-22.8 427.79-23.48 427.97-24.15 427.92-24.65L427.92-24.65ZM460.17-15.35Q460.12-15.7 460.12-16.5L460.12-16.5Q460.12-18.45 460.52-20.3 460.92-22.15 461.67-24.35L461.67-24.35Q462.42-26.4 464.52-28.45 466.62-30.5 469.22-31.83 471.82-33.15 473.92-33.15L473.92-33.15Q476.07-33.15 478.12-31.58 480.17-30 480.72-28L480.72-28Q480.82-27.4 480.82-27.2L480.82-27.2Q480.82-26.45 480.39-26.08 479.97-25.7 479.27-25.7L479.27-25.7Q478.72-25.7 478.42-25.75L478.42-25.75Q478.27-25.75 477.97-25.95L477.97-25.95Q476.52-26.75 475.17-26.75L475.17-26.75Q472.62-26.75 470.12-24.1L470.12-24.1Q465.87-19.65 465.87-13.5L465.87-13.5Q465.87-11.3 466.32-9.25L466.32-9.25Q466.82-6.95 468.09-5.88 469.37-4.8 471.52-4.8L471.52-4.8Q472.27-4.8 473.17-4.95L473.17-4.95Q476.32-5.35 478.97-6.88 481.62-8.4 484.82-10.95L484.82-10.95Q485.57-11.55 487.47-13.45L487.47-13.45 488.47-14.5Q489.12-15.15 489.59-15.43 490.07-15.7 490.47-15.7L490.47-15.7Q491.12-15.7 492.07-15.05L492.07-15.05Q493.12-14.3 493.12-13.15L493.12-13.15Q493.12-12.35 492.57-11.65L492.57-11.65Q492.37-11.3 491.47-10.03 490.57-8.75 489.72-7.75 488.87-6.75 488.02-6.05L488.02-6.05Q483.42-2 478.42-0.6L478.42-0.6Q476.22 0 474.02 0L474.02 0Q469.97 0 466.84-2.05 463.72-4.1 461.97-7.43 460.22-10.75 460.17-14.35L460.17-14.35 460.17-15.35ZM509.81-18.6Q509.81-18.4 509.86-18.18 509.91-17.95 509.96-17.75L509.96-17.75Q510.36-17.7 511.16-17.7L511.16-17.7Q514.66-17.7 518.36-19.2L518.36-19.2Q519.41-19.6 520.11-19.6L520.11-19.6Q521.51-19.6 522.41-18.3L522.41-18.3Q522.86-17.6 522.86-17.1L522.86-17.1Q522.86-16.5 522.21-15.85L522.21-15.85Q520.21-14 517.96-13.75L517.96-13.75Q515.96-13.5 511.96-12.9L511.96-12.9 508.46-12.4Q507.66-10.65 507.66-9L507.66-9Q507.66-6.6 509.34-5.03 511.01-3.45 513.91-3.35L513.91-3.35Q516.86-3.3 521.46-3.75L521.46-3.75 522.21-3.8Q523.46-3.8 524.29-3.23 525.11-2.65 525.86-1.2L525.86-1.2Q525.31 0 524.31 0.43 523.31 0.85 521.71 1.05L521.71 1.05Q520.06 1.25 517.96 1.25L517.96 1.25Q513.41 1.25 509.76-0.2L509.76-0.2Q503.31-2.7 501.51-8.85L501.51-8.85Q501.26-9.7 501.26-10.68 501.26-11.65 501.26-11.85L501.26-11.85Q501.26-13.55 499.61-14.35L499.61-14.35Q498.26-15.1 497.54-15.8 496.81-16.5 496.61-17.9L496.61-17.9 502.26-18.25 504.81-25.6Q504.91-25.95 505.04-26.48 505.16-27 505.31-27.3L505.31-27.3Q505.76-28.3 505.76-28.95L505.76-28.95Q505.76-29.95 504.81-30.7L504.81-30.7Q504.46-30.95 504.24-31.63 504.01-32.3 503.81-32.7L503.81-32.7 504.91-33.05Q505.71-33.25 506.06-33.4L506.06-33.4Q506.26-33.5 506.91-33.77 507.56-34.05 507.66-34.4L507.66-34.4Q508.01-35.25 508.54-35.55 509.06-35.85 509.81-35.85L509.81-35.85Q510.31-35.85 511.31-35.75L511.31-35.75Q511.61-35.75 511.94-35.63 512.26-35.5 512.46-35.3L512.46-35.3Q513.61-34.1 515.01-33.7 516.41-33.3 518.31-33.3L518.31-33.3 520.46-33.3 524.66-33.3Q528.91-33.3 531.01-33.2L531.01-33.2Q532.11-33.15 533.81-32.25L533.81-32.25Q534.11-32.1 534.29-31.68 534.46-31.25 534.46-30.85L534.46-30.85Q534.46-30.65 534.11-30.38 533.76-30.1 533.46-30L533.46-30Q530.06-29.1 528.31-28.95L528.31-28.95Q525.61-28.7 520.21-28.3L520.21-28.3Q518.96-28.25 516.21-28.05L516.21-28.05Q516.01-28.05 515.51-28.18 515.01-28.3 514.76-28.3L514.76-28.3Q512.91-28.3 512.41-26.75L512.41-26.75Q511.06-22.75 509.86-18.8L509.86-18.8 509.81-18.6Z" opacity="1" transform="matrix(1,0,0,1,0,0)" fill="#ffffff" class="undefined-text-0" data-fill-palette-color="quaternary" id="text-0"></path></svg></g></svg></g></svg></g></svg></g><g></g></svg></g></svg><rect width="395.52" height="73.49318367919798" fill="none" stroke="none" visibility="hidden"></rect></g></svg></g></svg>