<svg xmlns="http://www.w3.org/2000/svg" width="64" height="64" viewBox="0 0 64 64" fill="none">
<path d="M32 64C49.6731 64 64 49.6731 64 32C64 14.3269 49.6731 0 32 0C14.3269 0 0 14.3269 0 32C0 49.6731 14.3269 64 32 64Z" fill="#282876"/>
<path d="M27.9998 33.3335V37.3335H35.9998V33.3335H45.3332V42.6668C45.3332 43.0204 45.1926 43.3596 44.9426 43.6096C44.6926 43.8596 44.3534 44.0002 43.9998 44.0002H19.9998C19.6462 44.0002 19.307 43.8596 19.057 43.6096C18.807 43.3596 18.6665 43.0204 18.6665 42.6668V33.3335H27.9998ZM30.6665 30.6668H33.3332V34.6668H30.6665V30.6668ZM25.3332 22.6668V18.6668C25.3332 18.3132 25.4737 17.974 25.7237 17.724C25.9737 17.474 26.3129 17.3335 26.6665 17.3335H37.3332C37.6868 17.3335 38.026 17.474 38.276 17.724C38.526 17.974 38.6665 18.3132 38.6665 18.6668V22.6668H43.9998C44.3534 22.6668 44.6926 22.8074 44.9426 23.0574C45.1926 23.3074 45.3332 23.6466 45.3332 24.0002V30.6668H35.9998V28.0002H27.9998V30.6668H18.6665V24.0002C18.6665 23.6466 18.807 23.3074 19.057 23.0574C19.307 22.8074 19.6462 22.6668 19.9998 22.6668H25.3332ZM27.9998 20.0002V22.6668H35.9998V20.0002H27.9998Z" fill="white"/>
<defs fill="#000000">
<linearGradient id="paint0_linear_2759_30274" x1="64" y1="64" x2="18.4704" y2="-11.1851" gradientUnits="userSpaceOnUse" fill="#000000">
<stop stop-color="#4FD6B8" fill="#000000"/>
<stop offset="0.895833" stop-color="#12b5a0" fill="#000000"/>
</linearGradient>
</defs>
</svg>